<?xml version="1.0" encoding="UTF-8"?>
<svg id="uuid-cdc38330-6261-429c-924c-d146d6080e80" data-name="Layer 1" xmlns="http://www.w3.org/2000/svg" xmlns:xlink="http://www.w3.org/1999/xlink" viewBox="0 0 903.03 338.45">
  <defs>
    <style>
      .uuid-3c40044a-4b4a-41af-b818-f039f41e0821 {
        filter: url(#uuid-afaa5b56-4f2b-49ae-a10f-9d8c7fdd2d6a);
      }

      .uuid-3c40044a-4b4a-41af-b818-f039f41e0821, .uuid-c1888c7b-6a3f-44c8-80e0-2c521e5bb4b8 {
        fill: #00529b;
      }
    </style>
    <filter id="uuid-afaa5b56-4f2b-49ae-a10f-9d8c7fdd2d6a" data-name="drop-shadow-1" x="24.74" y="5.86" width="326.45" height="326.73" filterUnits="userSpaceOnUse">
      <feOffset dx="22.83" dy="22.83"/>
      <feGaussianBlur result="uuid-74aaa6df-0dd2-4e45-8323-60eb75fff11c" stdDeviation="22.83"/>
      <feFlood flood-color="#201d1e" flood-opacity="1"/>
      <feComposite in2="uuid-74aaa6df-0dd2-4e45-8323-60eb75fff11c" operator="in"/>
      <feComposite in="SourceGraphic"/>
    </filter>
  </defs>
  <path class="uuid-3c40044a-4b4a-41af-b818-f039f41e0821" d="M301.37,5.86H74.56c-27.5,0-49.82,22.86-49.82,51.09v224.56c0,27.97,21.87,50.68,49.07,51.08h227.4c27.5,0,49.87-22.85,49.87-51.08l.11-224.56c0-28.23-22.32-51.09-49.82-51.09ZM101.51,306.41l-12.37.15c-14.99,0-27.09-12.34-27.09-27.5l-.09-2.18V69.5l.09-11.18c.61-14.67,11.74-26.52,26.34-26.52h25.14c22.83,0,41.29,19.83,41.29,43.18,0,11.6-4.54,22.07-11.89,29.73l-64.15,65.06,60.15,61.28c7.73,8.01,12.4,18.52,12.4,30,0,25.05-22.26,45.36-49.81,45.36ZM286.44,306.23l-112.16-.03s12.97-28.05,12.97-45.39c0-21.14-7.07-40.06-18.13-52.55l-38.35-39.11,39.1-40.41c11.7-10.99,19.43-30.45,19.43-52.57,0-17.53-4.84-33.07-12.68-44.35h27.19c22.81,0,41.29,19.83,41.29,43.18,0,11.6-4.52,22.07-11.85,29.73l-62.96,64.4,130.73,133.32c-4.17,2.61-9.37,3.79-14.57,3.79ZM313.8,264.59l-93.69-95.5,44.61-45.33c9.1-11.39,14.89-28.49,14.89-47.61,0-17.64-4.93-33.58-12.81-44.85l19.95.63c14.96,0,27.13,12.3,27.13,27.51l-.08,205.16Z"/>
  <path class="uuid-c1888c7b-6a3f-44c8-80e0-2c521e5bb4b8" d="M552.22,153.88c1.82-1.82,3.98-4.18,6.46-7.05,2.48-2.87,4.83-6.27,7.05-10.19,2.22-3.92,4.11-8.29,5.68-13.12,1.57-4.83,2.35-9.99,2.35-15.48,0-10.71-1.83-20.7-5.49-29.97-3.66-9.27-9.27-17.37-16.85-24.29-7.58-6.92-17.04-12.34-28.41-16.26-11.36-3.92-24.62-5.88-39.77-5.88h-99.9v274.25h109.7c15.93,0,29.84-2.15,41.73-6.46,11.88-4.31,21.74-10.25,29.58-17.82,7.84-7.57,13.64-16.39,17.43-26.45,3.78-10.05,5.68-20.82,5.68-32.32,0-15.41-3.53-29.12-10.58-41.14-7.05-12.01-15.28-21.28-24.68-27.82ZM503.72,81.9c3.69,1.41,6.77,3.24,9.18,5.54,6.24,5.99,9.36,13.14,9.36,21.46,0,7.55-1.3,13.79-3.9,18.73-2.6,4.94-5.21,8.72-7.8,11.31h-76.26v-60.28h47.41c8.89,0,16.2,1.1,22.02,3.24ZM495.81,186.4c13.8,0,24.04,3.58,30.7,10.72,6.26,7.03,9.41,15.33,9.41,24.93s-3.58,18.34-10.73,25.36c-7.16,7.02-18.92,10.53-35.31,10.53h-55.58v-71.54h61.51Z"/>
  <path class="uuid-c1888c7b-6a3f-44c8-80e0-2c521e5bb4b8" d="M773.47,187.77c8.23-5.61,15.08-12.15,20.57-19.59,5.49-7.44,9.53-15.67,12.15-24.68,2.61-9.01,3.92-18.22,3.92-27.62,0-12.27-2.03-23.57-6.07-33.89-4.05-10.32-10.13-19.2-18.22-26.64-8.1-7.44-18.22-13.25-30.36-17.43-12.14-4.17-26.19-6.27-42.12-6.27h-107.95v274.25h51.92v-101.86h28.95l71.6,101.86h60.86l-74.05-105.39c10.97-2.87,20.57-7.11,28.8-12.73ZM713.73,78.66c3.27,0,6.34.21,9.28.58,9.26,1.4,16.82,4.7,22.65,9.95,7.93,7.16,11.9,15.94,11.9,26.34,0,5.21-.85,10.28-2.54,15.22-1.7,4.94-4.36,9.3-8,13.07-3.65,3.77-8.33,6.83-14.05,9.17-5.72,2.34-12.62,3.51-20.68,3.51h-54.98v-77.84h56.42Z"/>
  <path class="uuid-c1888c7b-6a3f-44c8-80e0-2c521e5bb4b8" d="M837.06,31.65v.08c-.52-.02-1.04-.08-1.57-.08h-.44v274.25h52.94V31.65h-50.93Z"/>
</svg>